<svg width="57" height="57" viewBox="0 0 57 57" fill="none" xmlns="http://www.w3.org/2000/svg">
<circle cx="28.5" cy="28.5" r="28.5" fill="#D9D9D9"/>
<path d="M38.5 17H17.5C16.572 17.001 15.6824 17.3701 15.0262 18.0262C14.3701 18.6824 14.001 19.572 14 20.5V35.5C14.001 36.428 14.3701 37.3176 15.0262 37.9738C15.6824 38.6299 16.572 38.999 17.5 39H38.5C39.428 38.999 40.3176 38.6299 40.9738 37.9738C41.6299 37.3176 41.999 36.428 42 35.5V20.5C41.999 19.572 41.6299 18.6824 40.9738 18.0262C40.3176 17.3701 39.428 17.001 38.5 17ZM37.6138 22.7894L28.6138 29.7894C28.4382 29.9258 28.2223 29.9999 28 29.9999C27.7777 29.9999 27.5618 29.9258 27.3862 29.7894L18.3863 22.7894C18.2805 22.7095 18.1917 22.6094 18.125 22.495C18.0582 22.3805 18.0149 22.2539 17.9975 22.1225C17.9801 21.9912 17.989 21.8577 18.0237 21.7298C18.0584 21.6019 18.1181 21.4822 18.1994 21.3776C18.2808 21.2729 18.3821 21.1855 18.4975 21.1204C18.6129 21.0553 18.7401 21.0138 18.8717 20.9983C19.0033 20.9827 19.1366 20.9935 19.264 21.03C19.3914 21.0664 19.5103 21.1278 19.6137 21.2106L28 27.7331L36.3862 21.2106C36.596 21.0523 36.8596 20.9828 37.1201 21.0173C37.3806 21.0517 37.617 21.1874 37.7783 21.3948C37.9396 21.6023 38.0128 21.8649 37.982 22.1259C37.9512 22.3868 37.8189 22.6252 37.6138 22.7894Z" fill="#606F83"/>
</svg>
