<svg width="304" height="92" viewBox="0 0 304 92" fill="none" xmlns="http://www.w3.org/2000/svg">
<path d="M34.824 70.96C14.568 70.96 0.648 54.256 0.648 35.728C0.648 15.856 14.376 0.879997 34.152 0.879997C53.832 0.879997 67.464 17.104 67.464 36.304C67.464 55.216 53.352 70.96 34.824 70.96ZM36.936 66.832C49.8 66.832 58.824 55.024 58.824 42.064C58.824 21.712 47.592 5.008 31.176 5.008C18.216 5.008 9.288 15.76 9.288 29.872C9.288 49.648 20.52 66.832 36.936 66.832ZM101.3 70.96C86.0362 70.96 76.2442 59.344 76.2442 46.288C76.2442 32.944 86.4202 22.96 99.5723 22.96C113.972 22.96 123.956 33.904 123.956 47.344C123.956 60.592 114.836 70.96 101.3 70.96ZM102.452 67.792C109.94 67.792 115.508 60.976 115.508 50.224C115.508 36.784 108.404 26.128 98.6122 26.128C90.4522 26.128 84.7882 32.848 84.7882 43.6C84.7882 55.888 91.8922 67.792 102.452 67.792ZM158.749 22.96C170.461 22.96 180.829 32.08 180.829 46.288C180.829 60.496 170.941 70.96 158.845 70.96C152.893 70.96 147.997 68.464 144.637 64.336V84.976C144.637 88.528 148.381 88.528 148.381 90.352V90.64C148.381 91.504 147.613 91.888 146.461 91.888H134.653C133.501 91.888 132.637 91.504 132.637 90.64V90.352C132.637 88.528 136.189 88.528 136.189 84.976V34.096C136.189 30.736 132.349 30.64 132.349 28.72V28.432C132.349 27.664 132.925 27.088 133.885 26.704L140.797 23.344C142.717 22.48 143.485 23.248 143.485 24.688L143.389 31.024C146.269 26.128 152.029 22.96 158.749 22.96ZM157.693 67.888C166.525 67.888 172.285 60.4 172.285 48.592C172.285 35.344 165.949 26.032 156.637 26.032C150.685 26.032 145.405 30.832 144.637 36.688V53.104C144.637 60.784 150.973 67.888 157.693 67.888ZM208.599 70.864C195.831 70.864 189.111 64.432 189.111 59.92C189.111 57.616 190.647 56.368 192.855 56.368C198.807 56.368 195.735 68.08 208.599 68.08C214.743 68.08 219.543 65.104 219.543 59.632C219.543 45.52 190.167 55.024 190.167 36.112C190.167 28.72 197.655 22.96 208.215 22.96C220.119 22.96 226.935 29.104 226.935 34.288C226.935 36.208 225.399 37.648 223.479 37.648C218.007 37.648 220.407 25.936 208.599 25.936C203.031 25.936 198.711 29.488 198.711 34.288C198.711 48.112 227.991 38.704 227.991 57.904C227.991 65.104 220.503 70.864 208.599 70.864ZM244.387 14.8C240.451 14.8 237.955 12.4 237.955 8.848C237.955 5.296 240.451 2.8 244.387 2.8C248.131 2.8 250.627 5.296 250.627 8.848C250.627 12.4 248.131 14.8 244.387 14.8ZM238.819 70C237.667 70 236.995 69.52 236.995 68.752V68.368C236.995 66.544 240.451 66.544 240.451 63.184V34.576C240.451 30.832 236.995 30.064 236.995 28.624V28.432C236.995 27.76 237.571 27.472 238.435 26.992L245.827 23.344C247.843 22.384 248.803 23.344 248.803 24.688V63.184C248.803 66.544 252.643 66.544 252.643 68.368V68.752C252.643 69.52 251.779 70 250.627 70H238.819ZM300.371 56.464C301.235 55.12 303.443 55.408 303.155 57.232C302.003 62.992 295.667 70.96 283.667 70.96C271.283 70.96 261.395 61.552 261.395 46.576C261.395 33.04 271.283 22.96 284.051 22.96C295.571 22.96 301.907 30.544 301.907 37.168C301.907 40.24 300.275 41.872 297.395 42.832L270.803 51.568C273.011 59.824 278.867 64.816 286.643 64.816C293.747 64.816 298.259 61.072 300.371 56.464ZM282.611 26.032C274.835 26.032 269.747 33.712 269.747 43.504C269.747 45.232 269.843 46.864 270.131 48.4L291.539 40.72C293.171 40.048 293.843 38.992 293.843 37.36C293.843 33.04 289.235 26.032 282.611 26.032Z" fill="black"/>
</svg>
