<svg width="57" height="57" viewBox="0 0 57 57" fill="none" xmlns="http://www.w3.org/2000/svg">
<circle cx="28.5" cy="28.5" r="28.5" fill="#D9D9D9"/>
<path fill-rule="evenodd" clip-rule="evenodd" d="M35.069 41.5107C33.149 41.44 27.7077 40.688 22.009 34.9907C16.3117 29.292 15.561 23.852 15.489 21.9307C15.3823 19.0027 17.625 16.1587 20.2157 15.048C20.5276 14.9133 20.8693 14.862 21.207 14.8992C21.5448 14.9363 21.8671 15.0607 22.1423 15.26C24.2757 16.8147 25.7477 19.1667 27.0117 21.016C27.2898 21.4223 27.4087 21.9167 27.3458 22.4051C27.2828 22.8934 27.0424 23.3415 26.6703 23.664L24.069 25.596C23.9433 25.6868 23.8549 25.82 23.82 25.9711C23.7852 26.1222 23.8064 26.2807 23.8797 26.4173C24.469 27.488 25.517 29.0827 26.717 30.2827C27.917 31.4827 29.5877 32.6 30.733 33.256C30.8766 33.3366 31.0456 33.3591 31.2053 33.319C31.3651 33.2788 31.5033 33.179 31.5917 33.04L33.285 30.4627C33.5963 30.0491 34.0556 29.7721 34.5666 29.6896C35.0776 29.6071 35.6007 29.7255 36.0263 30.02C37.9023 31.3187 40.0917 32.7653 41.6943 34.8173C41.9098 35.0945 42.0469 35.4245 42.0913 35.7729C42.1356 36.1212 42.0855 36.475 41.9463 36.7973C40.8303 39.4013 38.0063 41.6187 35.069 41.5107Z" fill="#606F83"/>
</svg>
