<svg width="51" height="33" viewBox="0 0 51 33" fill="none" xmlns="http://www.w3.org/2000/svg">
<path d="M23.7505 3.05006L20.3937 0.687012C7.75622 6.76342 1.83242 13.6838 0.252737 21.4481C-0.932023 27.862 2.02988 32.9257 9.53337 32.9257C14.8648 32.9257 19.9988 29.8875 21.1835 24.8238C22.1708 18.9162 18.2216 15.3717 13.2851 14.5277C15.2597 8.78889 23.553 3.05006 23.7505 3.05006ZM40.7321 14.1901C42.9041 8.62011 50.8025 3.05006 51 3.05006L47.6432 0.687012C35.0057 6.76342 29.0819 13.6838 27.5022 21.4481C26.3175 27.862 29.2794 32.9257 36.7829 32.9257C42.1143 32.9257 47.2483 29.8875 48.2356 24.8238C49.4203 18.9162 45.6686 15.0341 40.7321 14.1901Z" fill="url(#paint0_radial_1457_3627)"/>
<defs>
<radialGradient id="paint0_radial_1457_3627" cx="0" cy="0" r="1" gradientUnits="userSpaceOnUse" gradientTransform="translate(14.5714 6.21365) rotate(56.7913) scale(31.9262 41.4095)">
<stop stop-color="#CED2D6"/>
<stop offset="1" stop-color="#606F83"/>
</radialGradient>
</defs>
</svg>
